<?xml version="1.0" standalone="no"?>
<!DOCTYPE svg PUBLIC "-//W3C//DTD SVG 20010904//EN"
 "http://www.w3.org/TR/2001/REC-SVG-20010904/DTD/svg10.dtd">
<svg version="1.0" xmlns="http://www.w3.org/2000/svg"
 width="2048.000000pt" height="2048.000000pt" viewBox="0 0 2048.000000 2048.000000"
 preserveAspectRatio="xMidYMid meet">

<g transform="translate(0.000000,2048.000000) scale(0.100000,-0.100000)"
fill="#000000" stroke="none">
<path d="M9885 19114 c-1108 -56 -2080 -276 -3075 -697 -252 -107 -757 -357
-985 -488 -1370 -787 -2457 -1875 -3247 -3249 -129 -224 -370 -713 -467 -945
-290 -696 -508 -1469 -605 -2140 -36 -248 -74 -576 -88 -765 -19 -254 -16
-939 5 -1190 97 -1129 370 -2145 840 -3125 591 -1234 1432 -2281 2547 -3171
753 -602 1698 -1120 2619 -1435 769 -263 1567 -417 2386 -460 244 -13 850 -7
1055 11 889 75 1681 251 2440 542 318 123 404 160 697 303 749 366 1295 722
1918 1250 815 690 1510 1527 2019 2430 584 1034 949 2164 1081 3340 42 374 50
532 50 945 -1 416 -10 591 -50 935 -51 446 -94 697 -185 1075 -164 684 -371
1271 -659 1865 -693 1427 -1711 2596 -3021 3472 -623 416 -1392 795 -2100
1035 -727 246 -1424 387 -2210 448 -135 11 -834 21 -965 14z m580 -744 c646
-22 1128 -89 1740 -241 983 -245 1996 -728 2832 -1350 1196 -889 2143 -2098
2692 -3437 213 -521 351 -972 461 -1517 96 -473 126 -719 151 -1240 23 -491
-16 -1145 -96 -1600 -120 -683 -255 -1155 -504 -1765 -564 -1381 -1563 -2640
-2797 -3522 -402 -288 -702 -471 -1119 -683 -864 -438 -1756 -705 -2718 -815
-884 -100 -1821 -41 -2700 171 -790 190 -1443 454 -2197 887 -517 297 -1102
737 -1540 1158 -845 813 -1459 1699 -1909 2757 -240 562 -399 1114 -525 1817
-75 419 -115 1051 -97 1533 20 527 55 819 161 1347 54 272 62 304 140 580 255
898 660 1739 1201 2495 693 969 1567 1761 2594 2352 979 564 2078 923 3155
1032 226 23 493 41 665 44 66 2 122 4 125 5 3 1 131 -3 285 -8z"/>
<path d="M9895 17934 c-892 -56 -1645 -218 -2405 -517 -1259 -495 -2387 -1331
-3246 -2407 -488 -612 -910 -1355 -1173 -2070 -39 -107 -76 -205 -81 -217 -11
-26 -130 -418 -159 -523 -37 -134 -120 -521 -150 -700 -107 -631 -130 -1319
-65 -1980 57 -586 198 -1212 399 -1774 226 -635 553 -1269 933 -1811 253 -361
513 -674 822 -989 252 -257 456 -442 710 -645 620 -496 1245 -863 1985 -1166
569 -233 1273 -413 1895 -484 321 -37 488 -45 875 -45 686 0 1139 52 1755 200
739 178 1452 472 2130 878 1112 666 2052 1607 2718 2721 118 198 334 620 440
860 255 579 467 1318 551 1925 94 675 100 1289 20 1980 -112 968 -451 1994
-942 2850 -1219 2130 -3381 3580 -5762 3864 -299 36 -489 48 -835 50 -195 2
-382 2 -415 0z m1746 -3559 c32 -220 76 -521 98 -670 22 -148 38 -272 35 -276
-5 -9 -784 -8 -789 1 -4 6 -95 511 -95 525 0 3 -826 5 -1835 5 -1009 0 -1835
-3 -1835 -6 0 -4 55 -72 123 -152 190 -226 464 -554 1394 -1677 109 -132 309
-373 444 -535 364 -439 454 -551 454 -560 0 -9 -111 -143 -1006 -1216 -266
-319 -569 -684 -674 -810 -104 -126 -289 -348 -410 -493 -274 -329 -325 -391
-325 -402 0 -5 458 -9 1035 -9 569 0 1035 -3 1035 -8 0 -14 -171 -304 -245
-418 -40 -60 -123 -174 -185 -252 l-111 -142 -1319 0 -1320 0 0 378 1 377 221
270 c393 478 1167 1413 1717 2073 295 354 536 648 536 653 0 5 -48 66 -106
136 -170 204 -874 1053 -1239 1492 -184 222 -511 616 -727 874 -273 328 -393
480 -397 501 -7 41 -7 726 0 737 3 5 1162 8 2736 7 l2732 -3 57 -400z m3169
-1615 l0 -430 -710 0 c-560 0 -712 -3 -715 -12 -2 -7 -14 -103 -25 -213 -11
-110 -41 -382 -65 -605 -61 -560 -69 -636 -119 -1215 -64 -723 -69 -819 -63
-1069 8 -328 47 -548 127 -715 117 -243 330 -381 590 -381 119 0 210 22 319
76 107 53 202 139 271 245 47 73 111 232 146 366 14 54 27 99 29 101 1 2 70
-9 153 -23 82 -14 152 -25 155 -25 14 0 -50 -313 -103 -497 -87 -310 -245
-596 -432 -781 -192 -189 -364 -287 -608 -343 -123 -29 -376 -36 -496 -15
-205 35 -365 104 -516 221 -242 187 -386 438 -457 795 -34 175 -41 254 -48
530 -7 317 11 685 57 1160 113 1168 140 1427 210 2010 22 184 40 347 40 363
l0 27 -740 0 c-584 0 -742 -3 -745 -12 -2 -7 -14 -128 -25 -268 -53 -649 -111
-1227 -165 -1620 -19 -140 -48 -365 -65 -500 -39 -313 -120 -813 -201 -1245
-51 -271 -191 -840 -280 -1140 -62 -207 -191 -557 -266 -720 -157 -340 -344
-590 -520 -694 -116 -69 -164 -83 -290 -89 -95 -4 -122 -1 -185 18 -220 66
-347 215 -379 445 -19 142 25 328 110 456 26 41 80 110 119 154 155 173 334
416 450 610 72 122 228 433 286 571 93 221 249 741 319 1064 106 483 196 1116
281 1965 40 396 82 982 72 992 -8 8 -338 -15 -466 -33 -255 -35 -444 -113
-628 -261 -23 -19 -46 -33 -51 -31 -5 2 -45 47 -89 100 -44 53 -106 127 -138
165 -33 37 -76 89 -97 115 l-39 47 58 78 c32 43 119 139 194 213 149 148 240
212 400 281 228 98 619 167 1068 189 87 4 1083 8 2215 8 l2057 2 0 -430z
m-3425 -3731 c165 -27 329 -55 363 -61 35 -6 66 -17 69 -24 7 -18 -61 -498
-156 -1114 -27 -179 -55 -365 -61 -415 -6 -49 -13 -100 -16 -112 l-4 -23 -536
0 -536 0 5 23 c3 12 26 87 52 167 41 131 107 375 135 505 6 28 15 67 21 88
l10 37 79 0 c44 0 80 3 80 8 0 4 29 178 65 387 36 209 73 426 82 483 13 78 21
102 32 102 9 0 151 -23 316 -51z"/>
</g>
</svg>
